<svg xmlns="http://www.w3.org/2000/svg" viewBox="0 0 500 500" width="500" height="500"><circle cx="250" cy="250" r="240" fill="#14233F"/><circle cx="250" cy="250" r="222" fill="none" stroke="#C7A25C" stroke-width="2.5"/><g transform="translate(250,152) rotate(-30)"><path d="M 13.00 48.28 A 50 50 0 1 0 13.00 -48.28 A 50 50 0 0 1 13.00 48.28 Z" fill="#C7A25C"/><path d="M 37.0,-5.5 L 39.1,0.9 L 45.5,3.0 L 39.1,5.1 L 37.0,11.5 L 34.9,5.1 L 28.5,3.0 L 34.9,0.9 Z" fill="#C7A25C"/><path d="M 22.0,26.0 L 23.1,28.9 L 26.0,30.0 L 23.1,31.1 L 22.0,34.0 L 20.9,31.1 L 18.0,30.0 L 20.9,28.9 Z" fill="#C7A25C"/></g><text x="250" y="380" font-family="TeX Gyre Pagella" font-size="205" fill="#F5F0E7" text-anchor="middle">L</text></svg>